<svg width="24" height="24" viewBox="0 0 24 24" fill="none" xmlns="http://www.w3.org/2000/svg">
<path d="M22.58 5.54667L18.6667 1.61333C18.4081 1.35604 18.0581 1.21161 17.6933 1.21161C17.3286 1.21161 16.9786 1.35604 16.72 1.61333L2.84667 15.4667L1.58001 20.9333C1.53631 21.1332 1.53781 21.3402 1.58439 21.5394C1.63097 21.7386 1.72146 21.9249 1.84925 22.0846C1.97704 22.2443 2.13889 22.3735 2.32299 22.4627C2.50709 22.5518 2.70879 22.5988 2.91334 22.6C3.00865 22.6096 3.10469 22.6096 3.20001 22.6L8.72667 21.3333L22.58 7.49333C22.8373 7.23474 22.9817 6.88479 22.9817 6.52C22.9817 6.15521 22.8373 5.80526 22.58 5.54667ZM8.06001 20.1333L2.88001 21.22L4.06001 16.14L14.44 5.8L18.44 9.8L8.06001 20.1333ZM19.3333 8.83333L15.3333 4.83333L17.6533 2.52667L21.5867 6.52667L19.3333 8.83333Z" fill="black"/>
</svg>
